<?xml version="1.0" encoding="UTF-8"?>
<svg width="25.4mm" height="25.4mm" enable-background="new" version="1.1" viewBox="0 0 8 8" xmlns="http://www.w3.org/2000/svg" xmlns:xlink="http://www.w3.org/1999/xlink"><title>Logo</title><defs><linearGradient id="d"><stop stop-color="#e138b9" offset="0"/><stop stop-color="#2038b9" offset="1"/></linearGradient><linearGradient id="e"><stop stop-color="#f62336" stop-opacity=".95631" offset="0"/><stop stop-color="#ffec4a" offset="1"/></linearGradient><linearGradient id="c" x1="9.0872" x2="16.237" y1="21.679" y2="23.817" gradientTransform="matrix(1.0536 0 0 .81119 22.821 9.2144)" gradientUnits="userSpaceOnUse"><stop stop-color="#2038b9" offset="0"/><stop stop-color="#20c5b6" stop-opacity=".98039" offset="1"/></linearGradient><linearGradient id="a" x1="6.2395" x2="71.736" y1="25.688" y2="25.688" gradientUnits="userSpaceOnUse" xlink:href="#d"/><linearGradient id="b" x1="-.82928" x2="76.532" y1="23.803" y2="23.803" gradientUnits="userSpaceOnUse" xlink:href="#e"/></defs><g transform="translate(-32.395 -23.575)"><rect x="32.395" y="23.575" width="8" height="8" fill="url(#c)"/><g transform="translate(.070871 -.023624)" fill="none" stroke="url(#b)" stroke-linecap="round" stroke-opacity=".89706" stroke-width="14.44"><path transform="matrix(.13664 0 0 .16165 31.275 23.734)" d="m6.4813 11.69c4.1703-2.2404 8.3748-4.4992 13.063-4.0649s9.8779 3.5527 12.64 8.5304c2.7617 4.9777 3.0958 11.815 5.8244 16.626 2.7285 4.8111 7.851 7.595 13.453 7.2274 5.6016-0.36758 11.682-3.8867 17.762-7.4056" style="paint-order:normal"/><path transform="matrix(.13664 0 0 .16165 31.275 23.734)" d="m6.4813 11.69c4.1703-2.2404 8.3748-4.4992 13.063-4.0649s9.8779 3.5527 12.64 8.5304c2.7617 4.9777 3.0958 11.815 5.8244 16.626 2.7285 4.8111 7.851 7.595 13.453 7.2274 5.6016-0.36758 11.682-3.8867 17.762-7.4056" style="paint-order:normal"/><path transform="matrix(.13664 0 0 .16165 31.275 23.734)" d="m6.4813 11.69c4.1703-2.2404 8.3748-4.4992 13.063-4.0649s9.8779 3.5527 12.64 8.5304c2.7617 4.9777 3.0958 11.815 5.8244 16.626 2.7285 4.8111 7.851 7.595 13.453 7.2274 5.6016-0.36758 11.682-3.8867 17.762-7.4056" style="paint-order:normal"/><path transform="matrix(.13664 0 0 .16165 31.275 23.734)" d="m6.4813 11.69c4.1703-2.2404 8.3748-4.4992 13.063-4.0649s9.8779 3.5527 12.64 8.5304c2.7617 4.9777 3.0958 11.815 5.8244 16.626 2.7285 4.8111 7.851 7.595 13.453 7.2274 5.6016-0.36758 11.682-3.8867 17.762-7.4056" style="paint-order:normal"/><path transform="matrix(.13664 0 0 .16165 31.275 23.734)" d="m6.4813 11.69c4.1703-2.2404 8.3748-4.4992 13.063-4.0649s9.8779 3.5527 12.64 8.5304c2.7617 4.9777 3.0958 11.815 5.8244 16.626 2.7285 4.8111 7.851 7.595 13.453 7.2274 5.6016-0.36758 11.682-3.8867 17.762-7.4056" style="paint-order:normal"/><path transform="matrix(.13664 0 0 .16165 31.275 23.734)" d="m6.4813 11.69c4.1703-2.2404 8.3748-4.4992 13.063-4.0649s9.8779 3.5527 12.64 8.5304c2.7617 4.9777 3.0958 11.815 5.8244 16.626 2.7285 4.8111 7.851 7.595 13.453 7.2274 5.6016-0.36758 11.682-3.8867 17.762-7.4056" style="paint-order:normal"/><path transform="matrix(.13664 0 0 .16165 31.275 23.734)" d="m6.4813 11.69c4.1703-2.2404 8.3748-4.4992 13.063-4.0649s9.8779 3.5527 12.64 8.5304c2.7617 4.9777 3.0958 11.815 5.8244 16.626 2.7285 4.8111 7.851 7.595 13.453 7.2274 5.6016-0.36758 11.682-3.8867 17.762-7.4056" style="paint-order:normal"/><path transform="matrix(.13664 0 0 .16165 31.275 23.734)" d="m6.4813 11.69c4.1703-2.2404 8.3748-4.4992 13.063-4.0649s9.8779 3.5527 12.64 8.5304c2.7617 4.9777 3.0958 11.815 5.8244 16.626 2.7285 4.8111 7.851 7.595 13.453 7.2274 5.6016-0.36758 11.682-3.8867 17.762-7.4056" style="paint-order:normal"/><path transform="matrix(.13664 0 0 .16165 31.275 23.734)" d="m6.4813 11.69c4.1703-2.2404 8.3748-4.4992 13.063-4.0649s9.8779 3.5527 12.64 8.5304c2.7617 4.9777 3.0958 11.815 5.8244 16.626 2.7285 4.8111 7.851 7.595 13.453 7.2274 5.6016-0.36758 11.682-3.8867 17.762-7.4056" style="paint-order:normal"/><path transform="matrix(.13664 0 0 .16165 31.275 23.734)" d="m6.4813 11.69c4.1703-2.2404 8.3748-4.4992 13.063-4.0649s9.8779 3.5527 12.64 8.5304c2.7617 4.9777 3.0958 11.815 5.8244 16.626 2.7285 4.8111 7.851 7.595 13.453 7.2274 5.6016-0.36758 11.682-3.8867 17.762-7.4056" style="paint-order:normal"/><path transform="matrix(.13664 0 0 .16165 31.275 23.734)" d="m6.4813 11.69c4.1703-2.2404 8.3748-4.4992 13.063-4.0649s9.8779 3.5527 12.64 8.5304c2.7617 4.9777 3.0958 11.815 5.8244 16.626 2.7285 4.8111 7.851 7.595 13.453 7.2274 5.6016-0.36758 11.682-3.8867 17.762-7.4056" style="paint-order:normal"/><path transform="matrix(.13664 0 0 .16165 31.275 23.734)" d="m6.4813 11.69c4.1703-2.2404 8.3748-4.4992 13.063-4.0649s9.8779 3.5527 12.64 8.5304c2.7617 4.9777 3.0958 11.815 5.8244 16.626 2.7285 4.8111 7.851 7.595 13.453 7.2274 5.6016-0.36758 11.682-3.8867 17.762-7.4056" style="paint-order:normal"/><path transform="matrix(.13664 0 0 .16165 31.275 23.734)" d="m6.4813 11.69c4.1703-2.2404 8.3748-4.4992 13.063-4.0649s9.8779 3.5527 12.64 8.5304c2.7617 4.9777 3.0958 11.815 5.8244 16.626 2.7285 4.8111 7.851 7.595 13.453 7.2274 5.6016-0.36758 11.682-3.8867 17.762-7.4056" style="paint-order:normal"/><path transform="matrix(.13664 0 0 .16165 31.275 23.734)" d="m6.4813 11.69c4.1703-2.2404 8.3748-4.4992 13.063-4.0649s9.8779 3.5527 12.64 8.5304c2.7617 4.9777 3.0958 11.815 5.8244 16.626 2.7285 4.8111 7.851 7.595 13.453 7.2274 5.6016-0.36758 11.682-3.8867 17.762-7.4056" style="paint-order:normal"/><path transform="matrix(.13664 0 0 .16165 31.275 23.734)" d="m6.4813 11.69c4.1703-2.2404 8.3748-4.4992 13.063-4.0649s9.8779 3.5527 12.64 8.5304c2.7617 4.9777 3.0958 11.815 5.8244 16.626 2.7285 4.8111 7.851 7.595 13.453 7.2274 5.6016-0.36758 11.682-3.8867 17.762-7.4056" style="paint-order:normal"/><path transform="matrix(.13664 0 0 .16165 31.275 23.734)" d="m6.4813 11.69c4.1703-2.2404 8.3748-4.4992 13.063-4.0649s9.8779 3.5527 12.64 8.5304c2.7617 4.9777 3.0958 11.815 5.8244 16.626 2.7285 4.8111 7.851 7.595 13.453 7.2274 5.6016-0.36758 11.682-3.8867 17.762-7.4056" style="paint-order:normal"/><path transform="matrix(.13664 0 0 .16165 31.275 23.734)" d="m6.4813 11.69c4.1703-2.2404 8.3748-4.4992 13.063-4.0649s9.8779 3.5527 12.64 8.5304c2.7617 4.9777 3.0958 11.815 5.8244 16.626 2.7285 4.8111 7.851 7.595 13.453 7.2274 5.6016-0.36758 11.682-3.8867 17.762-7.4056" style="paint-order:normal"/><path transform="matrix(.13664 0 0 .16165 31.275 23.734)" d="m6.4813 11.69c4.1703-2.2404 8.3748-4.4992 13.063-4.0649s9.8779 3.5527 12.64 8.5304c2.7617 4.9777 3.0958 11.815 5.8244 16.626 2.7285 4.8111 7.851 7.595 13.453 7.2274 5.6016-0.36758 11.682-3.8867 17.762-7.4056" style="paint-order:normal"/></g><g transform="translate(-.12504 .069683)" fill-opacity="0" stroke="url(#a)" stroke-linecap="round" stroke-opacity=".94118" stroke-width="6.8785"><path transform="matrix(-.027358 .14915 -.14862 -.051236 45.436 18.731)" d="m7.0826 13.16c4.4994-2.2497 8.9984-4.4992 13.252-3.7307 4.2539 0.76848 8.2629 4.5548 10.724 9.0649 2.4611 4.5101 3.3743 9.7441 4.9 13.542 1.5257 3.7976 3.6638 6.1584 6.0471 7.7175 2.3833 1.5591 5.0114 2.3164 7.8511 2.3497 2.8397 0.03337 5.8912-0.65712 9.4324-2.1493s7.5728-3.7865 11.604-6.0804"/><path transform="matrix(-.027358 .14915 -.14862 -.051236 45.436 18.731)" d="m7.0826 13.16c4.4994-2.2497 8.9984-4.4992 13.252-3.7307 4.2539 0.76848 8.2629 4.5548 10.724 9.0649 2.4611 4.5101 3.3743 9.7441 4.9 13.542 1.5257 3.7976 3.6638 6.1584 6.0471 7.7175 2.3833 1.5591 5.0114 2.3164 7.8511 2.3497 2.8397 0.03337 5.8912-0.65712 9.4324-2.1493s7.5728-3.7865 11.604-6.0804"/><path transform="matrix(-.027358 .14915 -.14862 -.051236 45.436 18.731)" d="m7.0826 13.16c4.4994-2.2497 8.9984-4.4992 13.252-3.7307 4.2539 0.76848 8.2629 4.5548 10.724 9.0649 2.4611 4.5101 3.3743 9.7441 4.9 13.542 1.5257 3.7976 3.6638 6.1584 6.0471 7.7175 2.3833 1.5591 5.0114 2.3164 7.8511 2.3497 2.8397 0.03337 5.8912-0.65712 9.4324-2.1493s7.5728-3.7865 11.604-6.0804"/><path transform="matrix(-.027358 .14915 -.14862 -.051236 45.436 18.731)" d="m7.0826 13.16c4.4994-2.2497 8.9984-4.4992 13.252-3.7307 4.2539 0.76848 8.2629 4.5548 10.724 9.0649 2.4611 4.5101 3.3743 9.7441 4.9 13.542 1.5257 3.7976 3.6638 6.1584 6.0471 7.7175 2.3833 1.5591 5.0114 2.3164 7.8511 2.3497 2.8397 0.03337 5.8912-0.65712 9.4324-2.1493s7.5728-3.7865 11.604-6.0804"/><path transform="matrix(-.027358 .14915 -.14862 -.051236 45.436 18.731)" d="m7.0826 13.16c4.4994-2.2497 8.9984-4.4992 13.252-3.7307 4.2539 0.76848 8.2629 4.5548 10.724 9.0649 2.4611 4.5101 3.3743 9.7441 4.9 13.542 1.5257 3.7976 3.6638 6.1584 6.0471 7.7175 2.3833 1.5591 5.0114 2.3164 7.8511 2.3497 2.8397 0.03337 5.8912-0.65712 9.4324-2.1493s7.5728-3.7865 11.604-6.0804"/><path transform="matrix(-.027358 .14915 -.14862 -.051236 45.436 18.731)" d="m7.0826 13.16c4.4994-2.2497 8.9984-4.4992 13.252-3.7307 4.2539 0.76848 8.2629 4.5548 10.724 9.0649 2.4611 4.5101 3.3743 9.7441 4.9 13.542 1.5257 3.7976 3.6638 6.1584 6.0471 7.7175 2.3833 1.5591 5.0114 2.3164 7.8511 2.3497 2.8397 0.03337 5.8912-0.65712 9.4324-2.1493s7.5728-3.7865 11.604-6.0804"/><path transform="matrix(-.027358 .14915 -.14862 -.051236 45.436 18.731)" d="m7.0826 13.16c4.4994-2.2497 8.9984-4.4992 13.252-3.7307 4.2539 0.76848 8.2629 4.5548 10.724 9.0649 2.4611 4.5101 3.3743 9.7441 4.9 13.542 1.5257 3.7976 3.6638 6.1584 6.0471 7.7175 2.3833 1.5591 5.0114 2.3164 7.8511 2.3497 2.8397 0.03337 5.8912-0.65712 9.4324-2.1493s7.5728-3.7865 11.604-6.0804"/><path transform="matrix(-.027358 .14915 -.14862 -.051236 45.436 18.731)" d="m7.0826 13.16c4.4994-2.2497 8.9984-4.4992 13.252-3.7307 4.2539 0.76848 8.2629 4.5548 10.724 9.0649 2.4611 4.5101 3.3743 9.7441 4.9 13.542 1.5257 3.7976 3.6638 6.1584 6.0471 7.7175 2.3833 1.5591 5.0114 2.3164 7.8511 2.3497 2.8397 0.03337 5.8912-0.65712 9.4324-2.1493s7.5728-3.7865 11.604-6.0804"/><path transform="matrix(-.027358 .14915 -.14862 -.051236 45.436 18.731)" d="m7.0826 13.16c4.4994-2.2497 8.9984-4.4992 13.252-3.7307 4.2539 0.76848 8.2629 4.5548 10.724 9.0649 2.4611 4.5101 3.3743 9.7441 4.9 13.542 1.5257 3.7976 3.6638 6.1584 6.0471 7.7175 2.3833 1.5591 5.0114 2.3164 7.8511 2.3497 2.8397 0.03337 5.8912-0.65712 9.4324-2.1493s7.5728-3.7865 11.604-6.0804"/></g><g transform="rotate(-2.1706 39.33 30.055)" fill-opacity="0" stroke="url(#a)" stroke-linecap="round" stroke-opacity=".94118" stroke-width="6.8785"><path transform="matrix(-.027358 .14915 -.14862 -.051236 36.152 26.692)" d="m7.0826 13.16c4.4994-2.2497 8.9984-4.4992 13.252-3.7307 4.2539 0.76848 8.2629 4.5548 10.724 9.0649 2.4611 4.5101 3.3743 9.7441 4.9 13.542 1.5257 3.7976 3.6638 6.1584 6.0471 7.7175 2.3833 1.5591 5.0114 2.3164 7.8511 2.3497 2.8397 0.03337 5.8912-0.65712 9.4324-2.1493s7.5728-3.7865 11.604-6.0804"/><path transform="matrix(-.027358 .14915 -.14862 -.051236 36.152 26.692)" d="m7.0826 13.16c4.4994-2.2497 8.9984-4.4992 13.252-3.7307 4.2539 0.76848 8.2629 4.5548 10.724 9.0649 2.4611 4.5101 3.3743 9.7441 4.9 13.542 1.5257 3.7976 3.6638 6.1584 6.0471 7.7175 2.3833 1.5591 5.0114 2.3164 7.8511 2.3497 2.8397 0.03337 5.8912-0.65712 9.4324-2.1493s7.5728-3.7865 11.604-6.0804"/><path transform="matrix(-.027358 .14915 -.14862 -.051236 36.152 26.692)" d="m7.0826 13.16c4.4994-2.2497 8.9984-4.4992 13.252-3.7307 4.2539 0.76848 8.2629 4.5548 10.724 9.0649 2.4611 4.5101 3.3743 9.7441 4.9 13.542 1.5257 3.7976 3.6638 6.1584 6.0471 7.7175 2.3833 1.5591 5.0114 2.3164 7.8511 2.3497 2.8397 0.03337 5.8912-0.65712 9.4324-2.1493s7.5728-3.7865 11.604-6.0804"/><path transform="matrix(-.027358 .14915 -.14862 -.051236 36.152 26.692)" d="m7.0826 13.16c4.4994-2.2497 8.9984-4.4992 13.252-3.7307 4.2539 0.76848 8.2629 4.5548 10.724 9.0649 2.4611 4.5101 3.3743 9.7441 4.9 13.542 1.5257 3.7976 3.6638 6.1584 6.0471 7.7175 2.3833 1.5591 5.0114 2.3164 7.8511 2.3497 2.8397 0.03337 5.8912-0.65712 9.4324-2.1493s7.5728-3.7865 11.604-6.0804"/><path transform="matrix(-.027358 .14915 -.14862 -.051236 36.152 26.692)" d="m7.0826 13.16c4.4994-2.2497 8.9984-4.4992 13.252-3.7307 4.2539 0.76848 8.2629 4.5548 10.724 9.0649 2.4611 4.5101 3.3743 9.7441 4.9 13.542 1.5257 3.7976 3.6638 6.1584 6.0471 7.7175 2.3833 1.5591 5.0114 2.3164 7.8511 2.3497 2.8397 0.03337 5.8912-0.65712 9.4324-2.1493s7.5728-3.7865 11.604-6.0804"/><path transform="matrix(-.027358 .14915 -.14862 -.051236 36.152 26.692)" d="m7.0826 13.16c4.4994-2.2497 8.9984-4.4992 13.252-3.7307 4.2539 0.76848 8.2629 4.5548 10.724 9.0649 2.4611 4.5101 3.3743 9.7441 4.9 13.542 1.5257 3.7976 3.6638 6.1584 6.0471 7.7175 2.3833 1.5591 5.0114 2.3164 7.8511 2.3497 2.8397 0.03337 5.8912-0.65712 9.4324-2.1493s7.5728-3.7865 11.604-6.0804"/><path transform="matrix(-.027358 .14915 -.14862 -.051236 36.152 26.692)" d="m7.0826 13.16c4.4994-2.2497 8.9984-4.4992 13.252-3.7307 4.2539 0.76848 8.2629 4.5548 10.724 9.0649 2.4611 4.5101 3.3743 9.7441 4.9 13.542 1.5257 3.7976 3.6638 6.1584 6.0471 7.7175 2.3833 1.5591 5.0114 2.3164 7.8511 2.3497 2.8397 0.03337 5.8912-0.65712 9.4324-2.1493s7.5728-3.7865 11.604-6.0804"/><path transform="matrix(-.027358 .14915 -.14862 -.051236 36.152 26.692)" d="m7.0826 13.16c4.4994-2.2497 8.9984-4.4992 13.252-3.7307 4.2539 0.76848 8.2629 4.5548 10.724 9.0649 2.4611 4.5101 3.3743 9.7441 4.9 13.542 1.5257 3.7976 3.6638 6.1584 6.0471 7.7175 2.3833 1.5591 5.0114 2.3164 7.8511 2.3497 2.8397 0.03337 5.8912-0.65712 9.4324-2.1493s7.5728-3.7865 11.604-6.0804"/><path transform="matrix(-.027358 .14915 -.14862 -.051236 36.152 26.692)" d="m7.0826 13.16c4.4994-2.2497 8.9984-4.4992 13.252-3.7307 4.2539 0.76848 8.2629 4.5548 10.724 9.0649 2.4611 4.5101 3.3743 9.7441 4.9 13.542 1.5257 3.7976 3.6638 6.1584 6.0471 7.7175 2.3833 1.5591 5.0114 2.3164 7.8511 2.3497 2.8397 0.03337 5.8912-0.65712 9.4324-2.1493s7.5728-3.7865 11.604-6.0804"/></g></g></svg>
